<svg id="Layer_1" data-name="Layer 1" xmlns="http://www.w3.org/2000/svg" viewBox="0 0 125 125"><defs><style>.cls-1{fill:#fff;}.cls-2{fill:#ed1c24;}.cls-3{fill:#231f20;}</style></defs><path class="cls-1" d="M62.5,2.15A60.35,60.35,0,1,0,122.85,62.5,60.35,60.35,0,0,0,62.5,2.15Z"/><circle class="cls-2" cx="62.56" cy="62.5" r="43.79"/><path class="cls-3" d="M97.93,47.56a1.21,1.21,0,0,0-.09-.2l-7.52,3.23.07.15a30.21,30.21,0,0,1-2.78,28.65c-.54.79-1.11,1.56-1.72,2.3l6.32,5.2C93,86,93.72,85,94.4,84a38.74,38.74,0,0,0,3.53-6.52,38.46,38.46,0,0,0,0-29.88Z"/><path class="cls-3" d="M62.55,32.29a30.32,30.32,0,0,1,4.17.29V24.33a38.56,38.56,0,0,0-4.17-.23,37.73,37.73,0,0,0-4.14.23,36.41,36.41,0,0,0-5,.87,37.61,37.61,0,0,0-5.81,1.91c-.85.36-1.68.76-2.5,1.18a39.5,39.5,0,0,0-4,2.36,38.83,38.83,0,0,0-5.69,4.7A38.3,38.3,0,0,0,27,47.93h0L34.59,51l.11-.3a30.7,30.7,0,0,1,2.79-5.13,30.33,30.33,0,0,1,3.69-4.47c.59-.59,1.21-1.16,1.85-1.7a1.27,1.27,0,0,1,2.08,1V96.71c.82.42,1.65.82,2.5,1.18a37.61,37.61,0,0,0,5.81,1.91V36.44A3.57,3.57,0,0,1,56.21,33c.73-.15,1.46-.28,2.2-.38A31.52,31.52,0,0,1,62.55,32.29Z"/><path class="cls-3" d="M80,45.69V28.3c-.83-.42-1.67-.83-2.53-1.19A38.47,38.47,0,0,0,71.7,25.2V57.1a1.68,1.68,0,0,1-.63,1.28l-2.18,1.74c-.73.65-2.15.15-2.15-1.49v-5h0v-15a25.15,25.15,0,0,0-4.17-.36,24.79,24.79,0,0,0-4.14.36v62.06a37.73,37.73,0,0,0,4.14.23,38.56,38.56,0,0,0,4.17-.23V73.89h0V70a1.55,1.55,0,0,1,2.15-1.49l2.18,1.75a1.68,1.68,0,0,1,.63,1.28V99.8a38.47,38.47,0,0,0,5.79-1.91c.86-.36,1.7-.77,2.53-1.19v-17h0V70.52a5.76,5.76,0,0,0-1.9-4.19c-.85-.79-1.91-1.51-2-2.61C76.33,61.58,80,61.5,80,57.45V53.62h0Z"/><path class="cls-3" d="M62.5,3.09a59.86,59.86,0,0,1,12,1.21,59,59,0,0,1,21.24,8.94,59.45,59.45,0,0,1-10.09,104,58.55,58.55,0,0,1-11.15,3.46,59.81,59.81,0,0,1-23.94,0,59,59,0,0,1-21.24-8.94,59.45,59.45,0,0,1,10.09-104A58.55,58.55,0,0,1,50.53,4.3a59.86,59.86,0,0,1,12-1.21m0-.94A60.35,60.35,0,1,0,122.85,62.5,60.35,60.35,0,0,0,62.5,2.15Z"/><path class="cls-3" d="M23.18,99l-1.08.89-4-4.78,1.08-.89L20.67,96,25.43,92l1.06,1.28-4.76,3.93Z"/><path class="cls-3" d="M12.5,90.05l1.07-.64.73,1.23-1.07.64ZM20,84.93a3.47,3.47,0,0,1,1.85,1.66A3.49,3.49,0,0,1,22.45,89a2.86,2.86,0,0,1-1.54,1.89l-4,2.41L16,91.88l4-2.41a2.9,2.9,0,0,0,.49-.35,1.09,1.09,0,0,0,.34-.46,1.25,1.25,0,0,0,.08-.59,1.9,1.9,0,0,0-.29-.77,1.58,1.58,0,0,0-1-.86,1.88,1.88,0,0,0-1.24.35l-4,2.4-.85-1.43,4.05-2.4A2.83,2.83,0,0,1,20,84.93Zm-6.4,7,1.06-.63.73,1.23-1.06.63Z"/><path class="cls-3" d="M10.85,81.35a2.32,2.32,0,0,1-.17-.91,2.17,2.17,0,0,1,.16-.81A2,2,0,0,1,11.3,79a2.17,2.17,0,0,1,.7-.43,2.38,2.38,0,0,1,1.18-.16,1.8,1.8,0,0,1,1,.59h0a1.26,1.26,0,0,1,.06-.56,1.43,1.43,0,0,1,.27-.46,2.1,2.1,0,0,1,.42-.36,5.05,5.05,0,0,1,.51-.28l.39-.17.45-.22a2.91,2.91,0,0,0,.42-.25,1.17,1.17,0,0,0,.29-.3l.6,1.55a3,3,0,0,1-.74.47c-.3.14-.59.28-.85.43a1.48,1.48,0,0,0-.68.65,1.21,1.21,0,0,0,.06.94L16,82l2.76-1.06.6,1.55-7.06,2.72Zm3.41-.67a1.23,1.23,0,0,0-.55-.71,1,1,0,0,0-.87,0,1,1,0,0,0-.65.55,1.3,1.3,0,0,0,.08.89l.66,1.7,2-.76Z"/><path class="cls-3" d="M8.94,75,12,74.34,8.35,72.07l-.42-2,3.52,2.3,3.84-4.1.42,2.05L12.83,73.2l1.13.74,2.39-.49.34,1.63L9.27,76.6Z"/><path class="cls-3" d="M5.78,68l-.11-1.42,1.22-.1L7,67.86Zm2,0-.14-1.65,7.54-.62.14,1.66Z"/><path class="cls-3" d="M7.46,64.5l.06-1.86,3-1.69L7.62,59.11l0-1.85,4.58,2.94,2.9.08-.05,1.66-2.94-.08Z"/><path class="cls-3" d="M9,49.72l1.38.25L9.62,53.9l1.59.29.65-3.61,1.28.23-.66,3.61,1.83.33.72-4,1.38.25-1,5.65L7.94,55.29Z"/><path class="cls-3" d="M11.46,42l2.88,1.24-1.71-4,.83-1.9L15,41.31l5.49-1.16-.83,1.91-4,.75.51,1.25,2.23,1-.66,1.53-6.94-3Z"/><path class="cls-3" d="M14.53,31.61l1,.68-.78,1.19-1-.68Zm1.2-1.83,1,.68L16,31.66,15,31Zm.73,6.79a3.85,3.85,0,0,1-.66-1.31,3.47,3.47,0,0,1-.07-1.44,4.13,4.13,0,0,1,.6-1.48,3.81,3.81,0,0,1,1.12-1.14,3.37,3.37,0,0,1,1.35-.51,3.82,3.82,0,0,1,1.46.08,4.67,4.67,0,0,1,1.45.65,4.34,4.34,0,0,1,1.15,1.06,3.55,3.55,0,0,1,.64,1.29,3.27,3.27,0,0,1,.06,1.43,3.86,3.86,0,0,1-.6,1.48,4,4,0,0,1-1.11,1.14,3.31,3.31,0,0,1-1.34.52,3.52,3.52,0,0,1-1.44-.07,4.63,4.63,0,0,1-1.43-.63A4.89,4.89,0,0,1,16.46,36.57Zm2.93.09a2.22,2.22,0,0,0,.87.15,1.86,1.86,0,0,0,.83-.21,2,2,0,0,0,.7-.68,1.9,1.9,0,0,0,.34-.92,1.75,1.75,0,0,0-.13-.85,2.47,2.47,0,0,0-.48-.74,3.48,3.48,0,0,0-.72-.6,3.91,3.91,0,0,0-.87-.43,2.33,2.33,0,0,0-.89-.16,1.73,1.73,0,0,0-.83.21A2.19,2.19,0,0,0,17.16,34a1.93,1.93,0,0,0,.14.86,2.59,2.59,0,0,0,.5.75,4.13,4.13,0,0,0,.75.62A3.84,3.84,0,0,0,19.39,36.66Z"/><path class="cls-3" d="M21.83,25.5l5,2.35h0L24.24,23l1.63-1.68L31.3,26.6l-1.09,1.12L26.36,24v0l2.56,5.06L28,30l-5.1-2.36,0,0,3.81,3.69-1.08,1.12L20.2,27.18Z"/><path class="cls-3" d="M29.31,16.1l.72,1-1.17.82-.71-1Zm7.48,5.82a3.46,3.46,0,0,1-1.51,2,3.47,3.47,0,0,1-2.37.77,2.92,2.92,0,0,1-2-1.38l-2.71-3.84,1.36-1,2.71,3.84a4.31,4.31,0,0,0,.39.46,1.33,1.33,0,0,0,.49.3,1.2,1.2,0,0,0,.6,0,1.82,1.82,0,0,0,.74-.35,1.55,1.55,0,0,0,.78-1,2,2,0,0,0-.44-1.22L32.1,16.68l1.36-1,2.71,3.84A2.85,2.85,0,0,1,36.79,21.92ZM31.1,14.84l.71,1-1.17.82-.71-1Z"/><path class="cls-3" d="M39.62,12.5a2.42,2.42,0,0,1,.9-.24,2.09,2.09,0,0,1,.83.1,2,2,0,0,1,.68.4,1.94,1.94,0,0,1,.49.67,2.18,2.18,0,0,1,.25,1.16,1.8,1.8,0,0,1-.5,1.06v0a1.36,1.36,0,0,1,.57,0,1.21,1.21,0,0,1,.47.23,1.84,1.84,0,0,1,.4.39c.11.16.22.32.31.48l.21.37a4.91,4.91,0,0,0,.25.44,4,4,0,0,0,.28.4,1,1,0,0,0,.33.27L43.6,19a3.12,3.12,0,0,1-.53-.7c-.16-.29-.33-.56-.5-.82a1.51,1.51,0,0,0-.7-.63,1.27,1.27,0,0,0-.93.14l-1.5.72,1.28,2.67-1.5.72L36,14.27Zm1,3.35a1.27,1.27,0,0,0,.66-.6,1,1,0,0,0-.1-.87,1,1,0,0,0-.6-.6,1.23,1.23,0,0,0-.88.15L38,14.72l.92,1.92Z"/><path class="cls-3" d="M47.26,7.58l1.38-.36L49,8.41l-1.38.36Zm.4,2,1.61-.42,1.92,7.31-1.61.43Z"/><path class="cls-3" d="M54.63,17.32a2.33,2.33,0,0,0,.41.07,1.69,1.69,0,0,0,.45,0c.31-.05.45-.19.42-.43a.31.31,0,0,0-.17-.24.49.49,0,0,0-.32,0l-.21.05-.18.09-.26-.22.4-.77a4.38,4.38,0,0,1-1.09-.09,2.86,2.86,0,0,1-1-.37,2.29,2.29,0,0,1-.71-.71A2.52,2.52,0,0,1,52,13.59l1.59-.24a1.52,1.52,0,0,0,.23.62,1.17,1.17,0,0,0,.43.37,1.6,1.6,0,0,0,.56.17,2.31,2.31,0,0,0,.64,0,3.06,3.06,0,0,0,.47-.1,1.85,1.85,0,0,0,.45-.21,1,1,0,0,0,.32-.34.72.72,0,0,0,.08-.49.71.71,0,0,0-.26-.47,1.93,1.93,0,0,0-.56-.24,5,5,0,0,0-.74-.11l-.84-.09a8.11,8.11,0,0,1-.86-.14,2.55,2.55,0,0,1-.77-.29,1.83,1.83,0,0,1-.59-.52,1.91,1.91,0,0,1-.33-.86,2,2,0,0,1,.1-1,2.24,2.24,0,0,1,.55-.8,2.63,2.63,0,0,1,.84-.56,3.89,3.89,0,0,1,1-.28,4.45,4.45,0,0,1,1.15,0,2.86,2.86,0,0,1,1,.28,2.23,2.23,0,0,1,.78.65,2.39,2.39,0,0,1,.4,1.07l-1.59.24a1.42,1.42,0,0,0-.22-.54,1.07,1.07,0,0,0-.37-.3A1.53,1.53,0,0,0,55,9.22a2.67,2.67,0,0,0-.56,0,1.8,1.8,0,0,0-.4.1,1.17,1.17,0,0,0-.34.2,1,1,0,0,0-.22.31.67.67,0,0,0-.05.4.75.75,0,0,0,.13.35.8.8,0,0,0,.37.2,3.47,3.47,0,0,0,.72.13l1.18.13.6.07a3.1,3.1,0,0,1,.79.24,2.38,2.38,0,0,1,.73.55,1.87,1.87,0,0,1,.42,1,2.25,2.25,0,0,1-.06,1,2.19,2.19,0,0,1-.47.84,3,3,0,0,1-.88.65,5,5,0,0,1-1.3.38l-.22.41,0,0a.67.67,0,0,1,.21-.09l.2-.05a1,1,0,0,1,.69.12.75.75,0,0,1,.33.56.85.85,0,0,1-.23.77,1.67,1.67,0,0,1-.94.4,3.67,3.67,0,0,1-.64,0,3.6,3.6,0,0,1-.61-.09Z"/><path class="cls-3" d="M61.55,7.55l0,6.16h3.69v1.4l-5.35,0,0-7.57Z"/><path class="cls-3" d="M73.07,8.47l-.2,1.39-4-.55-.22,1.61,3.63.5-.18,1.28-3.63-.5L68.26,14l4,.56L72.11,16l-5.69-.79,1-7.49Z"/><path class="cls-3" d="M74.58,10.21,75,8.87l6,1.74L80.53,12l-2.18-.63-1.73,5.91L75,16.77l1.73-5.92Z"/><path class="cls-3" d="M85.25,12.43l-.72,5.44h0L88.36,14l2.1,1-3.35,6.78-1.4-.69,2.37-4.81h0l-4,4-1.15-.57.69-5.58h0L81.2,18.86l-1.4-.69,3.35-6.78Z"/><path class="cls-3" d="M97.48,20l-.83,1.12-3.21-2.37-1,1.31,3,2.17-.76,1-3-2.17L90.6,22.6,93.89,25l-.83,1.13-4.62-3.42,4.49-6.08Z"/><path class="cls-3" d="M100.55,22.84l-4.33,4.39,2.62,2.59-1,1-3.81-3.75,5.31-5.39Z"/><path class="cls-3" d="M108.06,31.62l-1.11.84-2.42-3.18-1.29,1,2.22,2.91-1,.79-2.22-2.92-1.47,1.12,2.46,3.25-1.11.84-3.47-4.57,6-4.58Z"/><path class="cls-3" d="M111.41,37.39a2.6,2.6,0,0,1,.29.88,2.08,2.08,0,0,1-.07.83,1.93,1.93,0,0,1-.37.71,2.18,2.18,0,0,1-.64.52,2.3,2.3,0,0,1-1.15.3,1.84,1.84,0,0,1-1.09-.46h0a1.23,1.23,0,0,1,0,.57,1.49,1.49,0,0,1-.2.49,2.08,2.08,0,0,1-.38.41,4,4,0,0,1-.47.34l-.36.22a4.94,4.94,0,0,0-.42.27,2.28,2.28,0,0,0-.38.3.91.91,0,0,0-.26.34l-.79-1.47a3.08,3.08,0,0,1,.68-.56c.28-.17.54-.35.79-.53a1.57,1.57,0,0,0,.6-.73,1.24,1.24,0,0,0-.19-.92l-.79-1.47-2.6,1.4-.79-1.46,6.67-3.59Zm-3.3,1.1a1.27,1.27,0,0,0,.63.63,1.07,1.07,0,0,0,.87-.14,1,1,0,0,0,.57-.63,1.3,1.3,0,0,0-.19-.87l-.86-1.61-1.88,1Z"/><path class="cls-3" d="M113.39,41.69l.6,1.55L107,46l-.61-1.55Zm1.91-.63.53,1.33-1.15.45-.52-1.33Z"/><path class="cls-3" d="M116.28,51l-3.08.57,3.62,2.34.37,2-3.47-2.36-3.91,4-.38-2.05,2.93-2.86L111.24,52l-2.4.44-.3-1.64L116,49.39Z"/><path class="cls-3" d="M110.5,64a4.18,4.18,0,0,1-.08-4.75,2.89,2.89,0,0,1,2.27-.88l4.71-.08,0,1.66-4.7.08a3.79,3.79,0,0,0-.6.07,1.07,1.07,0,0,0-.52.23,1.18,1.18,0,0,0-.37.47,2.1,2.1,0,0,0-.13.82,1.55,1.55,0,0,0,.42,1.22,1.91,1.91,0,0,0,1.25.32l4.71-.08,0,1.66-4.7.08A2.88,2.88,0,0,1,110.5,64Z"/><path class="cls-3" d="M116.71,71.68a2.48,2.48,0,0,1-.3.88,2.06,2.06,0,0,1-.55.62,1.83,1.83,0,0,1-.72.34,2,2,0,0,1-.82,0,2.41,2.41,0,0,1-1.11-.45,1.73,1.73,0,0,1-.59-1h0a1.26,1.26,0,0,1-.34.46,1.29,1.29,0,0,1-.45.27,2,2,0,0,1-.55.1,5.61,5.61,0,0,1-.58,0l-.42,0-.5,0a4,4,0,0,0-.49,0,1.17,1.17,0,0,0-.4.12l.24-1.65a3,3,0,0,1,.87,0c.34,0,.65,0,1,0a1.46,1.46,0,0,0,.91-.23,1.22,1.22,0,0,0,.41-.85l.24-1.64-2.92-.44.25-1.65,7.48,1.12Zm-3.3-1.1a1.24,1.24,0,0,0,.12.89,1.05,1.05,0,0,0,.78.4,1,1,0,0,0,.83-.16,1.26,1.26,0,0,0,.38-.81l.26-1.8-2.1-.32Z"/><path class="cls-3" d="M107.36,79.71a3.45,3.45,0,0,1,0-2.49,3.52,3.52,0,0,1,1.44-2,2.94,2.94,0,0,1,2.44-.08l4.47,1.47-.52,1.58-4.47-1.47a3,3,0,0,0-.59-.14,1.21,1.21,0,0,0-.57,0,1.28,1.28,0,0,0-.5.33,1.84,1.84,0,0,0-.38.73,1.54,1.54,0,0,0,0,1.29,1.89,1.89,0,0,0,1.08.71l4.47,1.47-.52,1.58-4.47-1.47A2.84,2.84,0,0,1,107.36,79.71Z"/><path class="cls-3" d="M111.47,87.54l-5.41-1v0l3.74,4-1.13,2.05L102,89l.75-1.36,4.69,2.59v0L103.7,86l.62-1.13,5.54,1v0l-4.65-2.57.76-1.36,6.62,3.66Z"/><path class="cls-3" d="M98,94.9a4.17,4.17,0,0,1,3-3.66,2.88,2.88,0,0,1,2.3.81l3.62,3-1.06,1.28-3.62-3a4,4,0,0,0-.5-.34,1.14,1.14,0,0,0-1.13,0,1.74,1.74,0,0,0-.63.53,1.56,1.56,0,0,0-.48,1.2,1.9,1.9,0,0,0,.74,1.06l3.63,3L102.78,100l-3.62-3A2.86,2.86,0,0,1,98,94.9Z"/><path class="cls-3" d="M62.5,19.18a42.93,42.93,0,0,1,16.86,3.4,43.49,43.49,0,0,1,23.06,23.06,43.5,43.5,0,0,1,0,33.72,43.49,43.49,0,0,1-23.06,23.06,43.5,43.5,0,0,1-33.72,0A43.49,43.49,0,0,1,22.58,79.36a43.5,43.5,0,0,1,0-33.72A43.49,43.49,0,0,1,45.64,22.58a42.93,42.93,0,0,1,16.86-3.4m0-.94a43.82,43.82,0,0,0-17.22,3.47A44.4,44.4,0,0,0,21.71,45.28a44.46,44.46,0,0,0,0,34.44,44.4,44.4,0,0,0,23.57,23.57,44.46,44.46,0,0,0,34.44,0,44.4,44.4,0,0,0,23.57-23.57,44.46,44.46,0,0,0,0-34.44A44.4,44.4,0,0,0,79.72,21.71,43.82,43.82,0,0,0,62.5,18.24Z"/><polygon class="cls-3" points="30.91 98.84 32.05 102.36 35.75 102.36 32.75 104.53 33.9 108.05 30.91 105.88 27.91 108.05 29.05 104.53 26.06 102.36 29.76 102.36 30.91 98.84"/><polygon class="cls-3" points="93.22 98.84 94.37 102.36 98.06 102.36 95.07 104.53 96.22 108.05 93.22 105.88 90.23 108.05 91.37 104.53 88.38 102.36 92.08 102.36 93.22 98.84"/><path class="cls-3" d="M44.72,106.7l-.36,8.06-1.59-.67.13-1.77-2.6-1.11-1.2,1.32-1.54-.66L43.14,106ZM43,111l.21-2.92h0l-2,2.17Z"/><path class="cls-3" d="M49.58,108.37l1.85,5.68h0l1.21-4.93,1.52.37-1.81,7.35-1.62-.4-1.84-5.67h0l-1.21,4.91-1.52-.37L48,108Z"/><path class="cls-3" d="M57.29,109.86,57,113l3.19-2.89,2.07.16L59.12,113,62,117.81l-2.09-.16-2-3.57-1,.89-.19,2.43L55,117.27l.6-7.54Z"/><path class="cls-3" d="M67,109.91l3.39,7.33-1.72.13-.7-1.63-2.82.21-.47,1.72L63,117.8,65.32,110Zm.44,4.62-1.16-2.69h0l-.77,2.84Z"/><path class="cls-3" d="M74.48,108.61a2.29,2.29,0,0,1,.93,0,2.12,2.12,0,0,1,.79.27,2,2,0,0,1,.58.55,2.14,2.14,0,0,1,.34.75,2.28,2.28,0,0,1,0,1.19,1.77,1.77,0,0,1-.72.93v0a1.21,1.21,0,0,1,.55.14,1.46,1.46,0,0,1,.42.32,2.22,2.22,0,0,1,.3.47q.12.27.21.54c0,.11.07.25.11.41s.1.31.16.47a3,3,0,0,0,.19.45,1.14,1.14,0,0,0,.26.34l-1.62.38a2.62,2.62,0,0,1-.36-.79c-.1-.32-.2-.62-.32-.91a1.45,1.45,0,0,0-.55-.76,1.2,1.2,0,0,0-.94-.06l-1.62.38.69,2.88-1.62.38-1.75-7.36Zm.21,3.47a1.26,1.26,0,0,0,.78-.45,1.29,1.29,0,0,0-.37-1.58,1.33,1.33,0,0,0-.9,0l-1.77.42.49,2.08Z"/><path class="cls-3" d="M81.43,106.22l5.5,5.91-1.6.66-1.17-1.34-2.62,1.08.1,1.78-1.55.64-.24-8.08Zm1.85,4.25-1.93-2.2h0l.14,2.94Z"/><path class="cls-3" d="M32.29,64.14a6.7,6.7,0,0,1,2.62.53,6.85,6.85,0,0,1,3.59,3.59,6.7,6.7,0,0,1-1.45,7.38,6.51,6.51,0,0,1-2.14,1.44,6.73,6.73,0,0,1-8.82-8.82,6.51,6.51,0,0,1,1.44-2.14,6.68,6.68,0,0,1,4.76-2m0-.38a7.12,7.12,0,1,0,7.12,7.12,7.11,7.11,0,0,0-7.12-7.12Z"/><polygon class="cls-3" points="34.65 69.01 36.09 70.03 37.73 70.41 37.41 68.93 34.45 66.62 33.2 67.63 34.02 68.45 32.55 69.88 30.86 68.23 31.85 67.23 30.33 66 26.73 68.81 26.34 70.61 28.34 70.16 30.09 68.91 31.76 70.66 28.77 73.57 29.49 74.42 32.42 71.35 36.38 75.49 37.25 74.46 33.21 70.52 34.65 69.01"/><circle class="cls-3" cx="90.35" cy="42.46" r="4"/></svg>